<svg width="231" height="247" viewBox="0 0 231 247" fill="none" xmlns="http://www.w3.org/2000/svg">
<circle cx="115.5" cy="123.5" r="115.5" fill="#5F4B8B"/>
<path d="M122.434 43.0469H154.367V178.203H169.211V195H136.203V186.699C132.948 190.02 129.172 192.624 124.875 194.512C120.578 196.335 115.695 197.246 110.227 197.246C103.391 197.246 97.0104 196.074 91.0859 193.73C85.2266 191.322 80.1159 187.839 75.7539 183.281C71.457 178.659 68.0716 173.027 65.5977 166.387C63.1888 159.681 61.9844 152.031 61.9844 143.438C61.9844 135.625 63.1562 128.529 65.5 122.148C67.8438 115.703 71.1641 110.234 75.4609 105.742C79.7578 101.185 84.9336 97.6693 90.9883 95.1953C97.043 92.6562 103.781 91.3867 111.203 91.3867C116.086 91.3867 120.546 91.9401 124.582 93.0469C128.618 94.0885 132.492 95.944 136.203 98.6133V59.8438H122.434V43.0469ZM112.57 181.426C117.974 181.426 122.499 180.645 126.145 179.082C129.79 177.454 133.143 175.046 136.203 171.855V115.215C132.948 112.48 129.204 110.495 124.973 109.258C120.741 108.021 116.411 107.402 111.984 107.402C107.688 107.402 103.651 108.216 99.875 109.844C96.099 111.406 92.7786 113.717 89.9141 116.777C87.1146 119.837 84.901 123.581 83.2734 128.008C81.6458 132.435 80.832 137.513 80.832 143.242C80.832 149.492 81.6133 154.993 83.1758 159.746C84.7383 164.499 86.9193 168.503 89.7188 171.758C92.5182 174.948 95.8711 177.357 99.7773 178.984C103.684 180.612 107.948 181.426 112.57 181.426Z" fill="#FEFEFE"/>
</svg>
